<svg width="37" height="37" viewBox="0 0 37 37" fill="none" xmlns="http://www.w3.org/2000/svg">
<g id="mdi:axis-z-rotate-counterclockwise">
<path id="Vector" d="M15.4167 18.5L21.5833 24.6667L15.4167 30.8334V26.0542C8.38667 25.345 3.08334 22.2309 3.08334 18.5C3.08334 14.7692 8.38667 11.655 15.4167 10.9459V14.0138C10.0979 14.538 6.16667 16.3417 6.16667 18.5C6.16667 20.6584 10.0979 22.4621 15.4167 22.9863V18.5ZM30.8333 18.5C30.8333 16.3417 26.9021 14.538 21.5833 14.0138V10.9459C28.6133 11.655 33.9167 14.7692 33.9167 18.5C33.9167 21.83 29.6925 24.6667 23.7725 25.7459L24.8517 24.6667L23.0017 22.8013C27.5804 22.1384 30.8333 20.458 30.8333 18.5ZM16.9583 3.08337H20.0417V20.0417L16.9583 16.9584V3.08337ZM16.9583 33.9167V32.375L20.0417 29.2917V33.9167H16.9583Z" fill="white"/>
</g>
</svg>
