<svg width="20" height="20" viewBox="0 0 20 20" fill="none" xmlns="http://www.w3.org/2000/svg">
<circle cx="10" cy="10" r="10" fill="#FF9C27"/>
<path d="M10.0002 3.86362C8.78657 3.86362 7.60017 4.22351 6.59105 4.89778C5.58193 5.57205 4.79541 6.53042 4.33097 7.6517C3.86652 8.77297 3.745 10.0068 3.98177 11.1971C4.21855 12.3875 4.80298 13.4809 5.66116 14.339C6.51935 15.1972 7.61274 15.7817 8.80308 16.0184C9.99342 16.2552 11.2272 16.1337 12.3485 15.6692C13.4698 15.2048 14.4282 14.4183 15.1024 13.4092C15.7767 12.4 16.1366 11.2136 16.1366 9.99998C16.1348 8.37308 15.4877 6.81334 14.3373 5.66294C13.1869 4.51255 11.6271 3.86545 10.0002 3.86362ZM10.0002 14.7727C9.05627 14.7727 8.13351 14.4928 7.34864 13.9684C6.56377 13.4439 5.95204 12.6985 5.5908 11.8264C5.22957 10.9543 5.13505 9.99469 5.31921 9.06887C5.50336 8.14305 5.95792 7.29263 6.6254 6.62515C7.29288 5.95767 8.1433 5.50312 9.06911 5.31896C9.99493 5.1348 10.9546 5.22932 11.8267 5.59056C12.6988 5.95179 13.4442 6.56352 13.9686 7.3484C14.493 8.13327 14.773 9.05602 14.773 9.99998C14.7715 11.2653 14.2682 12.4785 13.3735 13.3732C12.4787 14.268 11.2656 14.7713 10.0002 14.7727ZM12.5002 11.1363C12.4997 11.6184 12.3079 12.0805 11.9671 12.4214C11.6262 12.7622 11.1641 12.954 10.682 12.9545V13.1818C10.682 13.3626 10.6102 13.536 10.4823 13.6639C10.3545 13.7918 10.1811 13.8636 10.0002 13.8636C9.8194 13.8636 9.64597 13.7918 9.51811 13.6639C9.39024 13.536 9.31841 13.3626 9.31841 13.1818V12.9545H8.63659C8.45576 12.9545 8.28234 12.8827 8.15447 12.7548C8.02661 12.627 7.95477 12.4535 7.95477 12.2727C7.95477 12.0919 8.02661 11.9185 8.15447 11.7906C8.28234 11.6627 8.45576 11.5909 8.63659 11.5909H10.682C10.8026 11.5909 10.9182 11.543 11.0035 11.4578C11.0887 11.3725 11.1366 11.2569 11.1366 11.1363C11.1366 11.0158 11.0887 10.9002 11.0035 10.8149C10.9182 10.7297 10.8026 10.6818 10.682 10.6818H9.31841C8.8362 10.6818 8.37373 10.4902 8.03276 10.1493C7.69178 9.80829 7.50023 9.34583 7.50023 8.86362C7.50023 8.3814 7.69178 7.91894 8.03276 7.57797C8.37373 7.23699 8.8362 7.04543 9.31841 7.04543V6.81816C9.31841 6.63733 9.39024 6.46391 9.51811 6.33604C9.64597 6.20818 9.8194 6.13634 10.0002 6.13634C10.1811 6.13634 10.3545 6.20818 10.4823 6.33604C10.6102 6.46391 10.682 6.63733 10.682 6.81816V7.04543H11.3639C11.5447 7.04543 11.7181 7.11727 11.846 7.24513C11.9738 7.373 12.0457 7.54642 12.0457 7.72725C12.0457 7.90808 11.9738 8.08151 11.846 8.20937C11.7181 8.33724 11.5447 8.40907 11.3639 8.40907H9.31841C9.19786 8.40907 9.08224 8.45696 8.997 8.5422C8.91175 8.62745 8.86386 8.74306 8.86386 8.86362C8.86386 8.98417 8.91175 9.09978 8.997 9.18503C9.08224 9.27027 9.19786 9.31816 9.31841 9.31816H10.682C11.1641 9.31872 11.6262 9.51045 11.9671 9.85131C12.3079 10.1922 12.4997 10.6543 12.5002 11.1363Z" fill="white"/>
</svg>
